<?xml version="1.0" encoding="UTF-8" standalone="no"?>
<svg
   width="96px"
   height="96px"
   enable-background="new 0 0 96 96"
   version="1.1"
   viewBox="0 0 96 96"
   xml:space="preserve"
   id="svg13"
   sodipodi:docname="m.svg"
   inkscape:version="1.3.2 (091e20e, 2023-11-25, custom)"
   xmlns:inkscape="http://www.inkscape.org/namespaces/inkscape"
   xmlns:sodipodi="http://sodipodi.sourceforge.net/DTD/sodipodi-0.dtd"
   xmlns="http://www.w3.org/2000/svg"
   xmlns:svg="http://www.w3.org/2000/svg"><sodipodi:namedview
     id="namedview13"
     pagecolor="#ffffff"
     bordercolor="#000000"
     borderopacity="0.25"
     inkscape:showpageshadow="2"
     inkscape:pageopacity="0.0"
     inkscape:pagecheckerboard="0"
     inkscape:deskcolor="#d1d1d1"
     inkscape:zoom="6.0325047"
     inkscape:cx="79.40317"
     inkscape:cy="31.91046"
     inkscape:window-width="1920"
     inkscape:window-height="1017"
     inkscape:window-x="1912"
     inkscape:window-y="-8"
     inkscape:window-maximized="1"
     inkscape:current-layer="svg13" /><style
     id="style1" /><defs
     id="defs2"><linearGradient
       id="a"
       x1="49.746"
       x2="49.587"
       y1="12.577"
       y2="82.926"
       gradientUnits="userSpaceOnUse"><stop
         stop-color="#4aade8"
         offset="0"
         id="stop1" /><stop
         stop-color="#136190"
         offset=".9944"
         id="stop2" /></linearGradient></defs><path
     d="m88 48.522c-0.11326 10.299-0.85563 21.623-7.7482 29.889-6.9742 8.0115-18.18 9.6496-28.21 10.042-10.557 0.17719-21.921 0.01925-31.215-5.6597-8.5982-5.2936-11.667-15.73-12.443-25.227-0.70115-10.793-0.85088-22.115 3.2792-32.306 3.1826-8.2109 11.164-13.477 19.563-15.157 10.326-2.1022 21.081-2.0706 31.471-0.42933 8.5082 1.3747 17.081 5.8452 20.875 13.951 3.8005 7.6735 4.3603 16.479 4.4287 24.896z"
     enable-background="new    "
     opacity=".28526"
     id="path2" /><path
     d="m88 47.522c-0.08282 10.463-0.91305 21.981-8.0782 30.26-7.0319 7.6579-17.997 9.3228-27.88 9.6709-11.299 0.20524-23.664-0.014-33.148-7.0112-8.1275-6.5314-10.406-17.534-10.715-27.445-0.50451-11.207-0.21415-23.225 5.7821-33.095 5.7157-8.458 16.303-11.488 25.999-12.049 10.163-0.8035 20.68-0.45417 30.383 2.9163 7.5663 2.9119 13.515 9.5184 15.402 17.431 1.8696 6.2539 2.1935 12.838 2.2536 19.322z"
     fill="url(#a)"
     id="path3"
     style="stroke:none" /><path
     fill="#f6fbfe"
     d="m 41.679727,54.69909 17.456135,12.801167 c 1.810266,1.163742 3.361923,0.517218 3.879142,-1.810267 l 7.111759,-33.360615 c 0.646524,-2.844704 -1.163742,-4.137751 -3.103312,-3.232618 L 25.516638,45.130542 c -2.715396,1.034437 -2.715396,2.715399 -0.517218,3.361922 l 10.73229,3.361922 24.567895,-15.64587 c 1.163743,-0.646524 2.19818,-0.387913 1.422352,0.517219"
     id="path3-5"
     style="stroke-width:0.129305" /></svg>
